# AST/ASF file generated using VICON BodyLanguage
# -----------------------------------------------
:version 1.10
:name VICON
:units
  mass 1.0
  length 0.45
  angle deg
:documentation
   .ast/.asf automatically generated from VICON data using
   VICON BodyBuilder and BodyLanguage model FoxedUp or BRILLIANT.MOD
:root
   order TX TY TZ RX RY RZ
   axis XYZ
   position 0 0 0  
   orientation 0 0 0 
:bonedata
  begin
     id 1 
     name lhipjoint
     direction 0.62366 -0.717238 0.310833 
     length 2.53602 
     axis 0 0 0  XYZ
  end
  begin
     id 2 
     name lfemur
     direction 0.34202 -0.939693 0  
     length 7.40817  
     axis 0 0 20  XYZ
    dof rx ry rz
    limits (-160.0 20.0)
           (-70.0 70.0)
           (-60.0 70.0)
  end
  begin
     id 3 
     name ltibia
     direction 0.34202 -0.939693 0   
     length 7.7045   
     axis 0 0 20   XYZ
    dof rx
    limits (-10.0 170.0)
  end
  begin
     id 4 
     name lfoot
     direction 0.0673888 -0.185149 0.980397   
     length 2.09456   
     axis -90 7.62852e-016 20   XYZ
    dof rx rz
    limits (-45.0 90.0)
           (-70.0 20.0)
  end
  begin
     id 5 
     name ltoes
     direction 1.53575e-011 -4.21994e-011 1   
     length 1.05543   
     axis -90 7.62852e-016 20   XYZ
    dof rx
    limits (-90.0 20.0)
  end
  begin
     id 6 
     name rhipjoint
     direction -0.489018 -0.800347 0.346851   
     length 2.27268  
     axis 0 0 0  XYZ 
  end
  begin
     id 7 
     name rfemur
     direction -0.34202 -0.939693 0   
     length 7.55487   
     axis 0 0 -20   XYZ
    dof rx ry rz
    limits (-160.0 20.0)
           (-70.0 70.0)
           (-70.0 60.0)
  end
  begin
     id 8 
     name rtibia
     direction -0.34202 -0.939693 0   
     length 7.78969   
     axis 0 0 -20   XYZ
    dof rx
    limits (-10.0 170.0)
 end
 begin
     id 9 
     name rfoot
     direction -0.0859318 -0.236096 0.967923   
     length 2.19143  
     axis -90 -7.62852e-016 -20   XYZ
    dof rx rz
    limits (-45.0 90.0)
           (-20.0 70.0)
  end
  begin
     id 10 
     name rtoes
     direction -1.53538e-011 -4.21989e-011 1   
     length 1.09845   
     axis -90 -7.62852e-016 -20   XYZ
    dof rx
    limits (-90.0 20.0)
  end
  begin
     id 11 
     name lowerback
     direction -0.00762546 0.998978 -0.0445553   
     length 1.98161   
     axis 0 0 0   XYZ
    dof rx ry rz
    limits (-20.0 45.0)
           (-30.0 30.0)
           (-30.0 30.0)
  end
  begin
     id 12 
     name upperback
     direction 0.0422361 0.998867 -0.0219156   
     length 1.97558   
     axis 0 0 0   XYZ
    dof rx ry rz
    limits (-20.0 45.0)
           (-30.0 30.0)
           (-30.0 30.0)
  end
  begin
     id 13 
     name thorax
     direction 0.0442465 0.999021 7.47603e-005   
     length 1.97799   
     axis 0 0 0   XYZ
    dof rx ry rz
    limits (-20.0 45.0)
           (-30.0 30.0)
           (-30.0 30.0)
  end
  begin
     id 14 
     name lowerneck
     direction 0.00312169 0.984641 0.174564   
     length 1.78995   
     axis 0 0 0   XYZ
    dof rx ry rz
    limits (-20.0 45.0)
           (-30.0 30.0)
           (-30.0 30.0)
  end
  begin
     id 15 
     name upperneck
     direction -0.0383028 0.985255 -0.166749   
     length 1.83053   
     axis 0 0 0   XYZ
    dof rx ry rz
    limits (-20.0 45.0)
           (-30.0 30.0)
           (-30.0 30.0)
  end
  begin
     id 16
     name head
     direction -0.0129546 0.997059 -0.0755386  
     length 1.84088  
     axis 0 0 0   XYZ
    dof rx ry rz
    limits (-20.0 45.0)
           (-30.0 30.0)
           (-30.0 30.0)
  end
  begin
     id 17 
     name lclavicle
     direction 0.912857 0.370519 -0.171488  
     length 3.51279  
     axis 0 0 0   XYZ
    dof ry rz
    limits (-20.0 10.0)
           (0.0 20.0)
  end
  begin
     id 18 
     name lhumerus
     direction 1 -4.48962e-011 3.64361e-027   
     length 4.95663   
     axis 180 -30 -90   XYZ
    dof rx ry rz
    limits (-60.0 90.0)
           (-90.0 90.0)
           (-90.0 90.0)
  end
  begin
     id 19
     name lradius
     direction 1 -4.48974e-011 5.97202e-027   
     length 3.38177   
     axis 180 -30 -90   XYZ
    dof rx
    limits (-10.0 170.0)
  end
  begin
     id 20
     name lwrist
     direction 1 -4.4896e-011 9.83288e-027   
     length 1.69088   
     axis -9.31221e-015 90 90   XYZ
    dof ry
    limits (-180.0 0.0)
 end
  begin
     id 21 
     name lhand
     direction 1 -4.4902e-011 1.96551e-026   
     length 0.662909   
     axis -1.25475e-014 90 90   XYZ
    dof rx rz
    limits (-90.0 90.0)
           (-45.0 45.0)
  end
  begin
     id 22 
     name lfingers
     direction 1 -4.48971e-011 3.93277e-026   
     length 0.534454   
     axis -2.50945e-014 90 90   XYZ
    dof rx
    limits (0.0 90.0)
  end
  begin
     id 23
     name lthumb
     direction 0.707107 -6.34933e-011 0.707107   
     length 0.767373   
     axis -90 45 -4.80359e-014   XYZ
    dof rx rz
    limits (-45.0 45.0)
           (-45.0 45.0)
  end
  begin
     id 24 
     name rclavicle
     direction -0.900919 0.395364 -0.178976   
     length 3.40627  
     axis 0 0 0   XYZ 
    dof ry rz
    limits (-10.0 20.0)
           (-20.0 0.0)
  end
  begin
     id 25 
     name rhumerus
     direction -1 -4.48969e-011 1.03875e-027  
     length 5.08365   
     axis 180 30 90   XYZ
    dof rx ry rz
    limits (-90.0 60.0)
           (-90.0 90.0)
           (-90.0 90.0)
  end
  begin
     id 26 
     name rradius
     direction -1 -4.48951e-011 5.02733e-027   
     length 3.35984   
     axis 180 30 90   XYZ
    dof rx
    limits (-10.0 170.0)
  end
  begin
     id 27 
     name rwrist
     direction -1 -4.49011e-011 9.82828e-027   
     length 1.67992   
     axis -9.31221e-015 -90 -90   XYZ
    dof ry
    limits (-180.0 0.0)
  end
  begin
     id 28
     name rhand
     direction -1 -4.48894e-011 1.96774e-026   
     length 0.820764   
     axis -1.25475e-014 -90 -90   XYZ
    dof rx rz
    limits (-90.0 90.0)
           (-45.0 45.0)
  end
  begin
     id 29
     name rfingers
     direction -1 -4.49095e-011 3.92833e-026   
     length 0.661721   
     axis -2.50945e-014 -90 -90   XYZ
    dof rx
    limits (0.0 90.0)
  end
  begin
     id 30
     name rthumb
     direction -0.707107 -6.34881e-011 0.707107   
     length 0.950103   
     axis -90 -45 4.80359e-014   XYZ
    dof rx rz
    limits (-45.0 45.0)
           (-45.0 45.0)
  end
:hierarchy
  begin
    root lhipjoint rhipjoint lowerback
    lhipjoint lfemur
    lfemur ltibia
    ltibia lfoot
    lfoot ltoes
    rhipjoint rfemur
    rfemur rtibia
    rtibia rfoot
    rfoot rtoes
    lowerback upperback
    upperback thorax
    thorax lowerneck lclavicle rclavicle
    lowerneck upperneck
    upperneck head
    lclavicle lhumerus
    lhumerus lradius
    lradius lwrist
    lwrist lhand lthumb
    lhand lfingers
    rclavicle rhumerus
    rhumerus rradius
    rradius rwrist
    rwrist rhand rthumb
    rhand rfingers
  end

#!OML:ASF I:\golf\golf\golf 2\Subject 1\2002-09-07\Subject1.ASF
:FULLY-SPECIFIED
:DEGREES
91
root 0.312052 18.1068 -9.2688 8.35431 -1.09796 -7.90704
lowerback -4.40536 1.00402 -0.0976305
upperback 0.529041 1.20954 4.66523
thorax 2.91663 0.564912 4.97304
lowerneck -14.9564 0.958654 0.720371
upperneck 41.2157 3.69454 -5.52869
head 18.0209 0.849514 -2.00385
rclavicle -1.76918e-014 -3.97569e-015
rhumerus -26.4721 1.46678 -85.2229
rradius 24.6774
rwrist -7.80763
rhand -26.9665 14.7898
rfingers 7.12502
rthumb -0.387718 -15.1896
lclavicle -1.76918e-014 -3.97569e-015
lhumerus -26.4839 -1.78563 92.2048
lradius 23.0607
lwrist 3.47513
lhand -8.17158 35.0552
lfingers 7.12502
lthumb 17.7437 64.2657
rfemur -17.7281 -0.536827 27.0347
rtibia 25.3718
rfoot -10.0681 -9.4778
rtoes 4.14692
lfemur -14.4294 2.70357 -14.3567
ltibia 27.8541
lfoot -16.743 5.22119
ltoes -6.14975
92
root 0.323547 18.1025 -9.2609 8.36925 -1.17543 -7.80684
lowerback -4.48044 1.08451 -0.224606
upperback 0.600745 1.32097 4.62361
thorax 3.02156 0.616629 5.0128
lowerneck -15.0677 0.911136 0.756436
upperneck 41.2285 3.60967 -5.52327
head 18.0537 0.821035 -2.02469
rclavicle 9.74045e-015 1.31198e-014
rhumerus -26.3691 1.27539 -85.1348
rradius 24.7028
rwrist -7.95403
rhand -27.2704 14.856
rfingers 7.12502
rthumb -0.681286 -15.1227
lclavicle 9.74045e-015 1.31198e-014
lhumerus -26.3411 -2.00662 92.3646
lradius 23.1049
lwrist 3.63128
lhand -8.2628 34.8694
lfingers 7.12502
lthumb 17.656 64.0878
rfemur -17.8709 -0.56293 26.8799
rtibia 25.6647
rfoot -9.90023 -9.45022
rtoes 1.80473
lfemur -14.4208 2.71368 -14.517
ltibia 27.8935
lfoot -16.8834 5.20702
ltoes -5.54059
93
root 0.333368 18.1009 -9.25378 8.29545 -1.11555 -7.61959
lowerback -4.40543 1.06851 -0.419021
upperback 0.644188 1.31242 4.56099
thorax 3.02209 0.609065 5.05586
lowerneck -15.0963 0.908679 0.776391
upperneck 41.2327 3.59934 -5.52115
head 18.0636 0.820105 -2.02951
rclavicle 1.19271e-015 -3.85642e-014
rhumerus -26.2647 1.20975 -85.1188
rradius 24.6705
rwrist -8.06136
rhand -27.4798 14.8508
rfingers 7.12502
rthumb -0.883447 -15.1271
lclavicle 1.19271e-015 -3.85642e-014
lhumerus -26.2925 -2.21778 92.4841
lradius 23.233
lwrist 3.80145
lhand -8.32814 34.9415
lfingers 7.12502
lthumb 17.5931 64.1655
rfemur -17.9281 -0.6517 26.646
rtibia 25.9911
rfoot -10.0722 -9.4639
rtoes 2.25372
lfemur -14.3221 2.60248 -14.7377
ltibia 27.9309
lfoot -17.0467 5.1098
ltoes -4.65026
94
root 0.343256 18.1013 -9.25196 8.27166 -1.01091 -7.52284
lowerback -4.24527 1.00466 -0.477205
upperback 0.623845 1.23568 4.50988
thorax 2.91755 0.571958 5.02511
lowerneck -15.0724 0.915403 0.749343
upperneck 41.2726 3.63016 -5.54198
head 18.0833 0.824679 -2.03036
rclavicle -6.21202e-015 -2.78299e-015
rhumerus -26.1917 1.3069 -85.1778
rradius 24.698
rwrist -8.14967
rhand -27.5449 14.6758
rfingers 7.12502
rthumb -0.946322 -15.3019
lclavicle -6.21202e-015 -2.78299e-015
lhumerus -26.3245 -2.35927 92.527
lradius 23.4694
lwrist 3.93117
lhand -8.22948 34.9003
lfingers 7.12502
lthumb 17.688 64.1158
rfemur -18.0838 -0.727379 26.5163
rtibia 26.3482
rfoot -10.2346 -9.49155
rtoes 3.32058
lfemur -14.3567 2.58453 -14.8638
ltibia 28.0318
lfoot -17.1269 4.97638
ltoes -4.54371
95
root 0.353121 18.0988 -9.25413 8.36704 -0.964967 -7.44735
lowerback -4.15563 0.966045 -0.524289
upperback 0.577507 1.19105 4.46959
thorax 2.82298 0.551193 5.00323
lowerneck -15.0539 0.925876 0.726751
upperneck 41.2865 3.65638 -5.54646
head 18.0881 0.830619 -2.02404
rclavicle 3.26007e-014 3.43897e-014
rhumerus -26.0293 1.2667 -85.197
rradius 24.6424
rwrist -8.00328
rhand -27.6195 14.4037
rfingers 7.12502
rthumb -1.0184 -15.5736
lclavicle 3.26007e-014 3.43897e-014
lhumerus -26.3779 -2.49613 92.5778
lradius 23.7652
lwrist 4.09946
lhand -8.11662 34.761
lfingers 7.12502
lthumb 17.7966 63.9666
rfemur -18.4091 -0.740592 26.4002
rtibia 26.7253
rfoot -10.2985 -9.52594
rtoes 3.28302
lfemur -14.571 2.67861 -14.9941
ltibia 28.162
lfoot -17.1634 4.89789
ltoes -5.10549
96
root 0.38544 18.0884 -9.2635 8.57509 -1.53385 -7.47208
lowerback -4.13052 1.1528 -0.280128
upperback 0.551239 1.43124 4.40332
thorax 2.76736 0.676757 4.80802
lowerneck -15.0261 0.948448 0.709883
upperneck 41.2025 3.69619 -5.5592
head 18.0332 0.843116 -2.0158
rclavicle -1.92821e-014 -1.98785e-015
rhumerus -25.861 1.21542 -85.1611
rradius 24.6022
rwrist -7.82369
rhand -27.749 14.3724
rfingers 7.12502
rthumb -1.14348 -15.6043
lclavicle -1.92821e-014 -1.98785e-015
lhumerus -26.4346 -2.70827 92.7047
lradius 24.1147
lwrist 4.37478
lhand -8.0559 34.964
lfingers 7.12502
lthumb 17.8551 64.1643
rfemur -18.9534 -0.719415 26.2706
rtibia 27.1211
rfoot -10.3608 -8.99407
rtoes 3.81538
lfemur -14.8195 2.75146 -15.1888
ltibia 28.279
lfoot -17.15 5.383
ltoes -4.75661
97
root 0.401925 18.0815 -9.25991 8.62776 -1.51055 -7.3552
lowerback -4.23717 1.13974 -0.413125
upperback 0.62749 1.41623 4.38833
thorax 2.90474 0.66437 4.87206
lowerneck -15.0286 0.938501 0.694062
upperneck 41.1054 3.68748 -5.57863
head 17.9763 0.83535 -2.01966
rclavicle 2.60408e-014 6.4605e-014
rhumerus -25.7796 1.27452 -85.1164
rradius 24.7959
rwrist -7.83863
rhand -27.7204 14.4037
rfingers 7.12502
rthumb -1.11587 -15.5731
lclavicle 2.60408e-014 6.4605e-014
lhumerus -26.4103 -2.99116 92.8724
lradius 24.4472
lwrist 4.68958
lhand -8.07536 35.0479
lfingers 7.12502
lthumb 17.8363 64.2499
rfemur -19.2715 -0.852107 26.0875
rtibia 27.5819
rfoot -10.5418 -8.88157
rtoes 4.6071
lfemur -14.9358 2.62925 -15.3765
ltibia 28.3996
lfoot -17.2367 5.41798
ltoes -4.27974
98
root 0.404788 18.0811 -9.2379 8.39727 -1.12223 -7.08024
lowerback -4.08284 1.00762 -0.806257
upperback 0.655758 1.26359 4.33805
thorax 2.85314 0.582498 5.02977
lowerneck -14.9778 0.909317 0.702339
upperneck 41.1439 3.63146 -5.55513
head 17.9809 0.817986 -2.02211
rclavicle 9.59136e-015 1.25234e-014
rhumerus -25.8592 1.13292 -85.0975
rradius 24.8686
rwrist -7.70741
rhand -27.7572 14.3858
rfingers 7.12502
rthumb -1.15145 -15.5908
lclavicle 9.59136e-015 1.25234e-014
lhumerus -26.5775 -3.30234 92.9814
lradius 24.7218
lwrist 5.03086
lhand -8.08544 34.7271
lfingers 7.12502
lthumb 17.8266 63.93
rfemur -19.181 -1.01074 25.7991
rtibia 28.1046
rfoot -10.7695 -9.17208
rtoes 3.8055
lfemur -14.674 2.60148 -15.6271
ltibia 28.4586
lfoot -17.4124 5.03753
ltoes -4.28242
99
root 0.430587 18.0757 -9.24085 8.39938 -1.61678 -6.98723
lowerback -4.0337 1.182 -0.821715
upperback 0.734112 1.49741 4.28343
thorax 2.88575 0.698081 4.99574
lowerneck -14.8899 0.867385 0.724551
upperneck 41.0183 3.59864 -5.67431
head 17.8862 0.794536 -2.08278
rclavicle -2.09718e-014 -2.48481e-014
rhumerus -25.589 0.988896 -84.983
rradius 24.6736
rwrist -7.47622
rhand -27.928 14.4797
rfingers 7.12502
rthumb -1.31637 -15.496
lclavicle -2.09718e-014 -2.48481e-014
lhumerus -26.4378 -3.30139 93.0713
lradius 24.8412
lwrist 5.01678
lhand -7.46738 34.5966
lfingers 7.12502
lthumb 18.4213 63.7443
rfemur -19.5479 -0.961055 25.5687
rtibia 28.684
rfoot -10.6156 -8.86932
rtoes 1.67489
lfemur -14.5958 2.81522 -15.9182
ltibia 28.4316
lfoot -17.3736 5.29641
ltoes -4.36649
100
root 0.440497 18.0694 -9.23575 8.40155 -1.56113 -6.87053
lowerback -4.06495 1.14968 -1.01926
upperback 0.775347 1.46279 4.28341
thorax 2.94445 0.675867 5.10817
lowerneck -14.7583 0.839865 0.817518
upperneck 40.9579 3.57851 -5.82175
head 17.8215 0.783391 -2.16961
rclavicle -1.26228e-014 8.34896e-015
rhumerus -25.4794 1.06567 -84.9519
rradius 24.6864
rwrist -7.45323
rhand -27.9935 14.5733
rfingers 7.12502
rthumb -1.37963 -15.402
lclavicle -1.26228e-014 8.34896e-015
lhumerus -26.3983 -3.34821 93.1687
lradius 25.0581
lwrist 4.92418
lhand -9.28477 32.1838
lfingers 7.12502
lthumb 16.6723 61.4878
rfemur -19.8569 -1.08804 25.4331
rtibia 29.3058
rfoot -10.6858 -8.88745
rtoes 1.60377
lfemur -14.5988 2.94966 -16.0584
ltibia 28.4108
lfoot -17.3896 5.03291
ltoes -4.40287
101
root 0.436002 18.0624 -9.21859 8.25466 -1.08954 -6.68489
lowerback -3.92988 0.987682 -1.34214
upperback 0.757501 1.26599 4.23953
thorax 2.86292 0.574063 5.22995
lowerneck -14.7305 0.839667 0.838386
upperneck 41.1372 3.54321 -5.72742
head 17.9137 0.784374 -2.1435
rclavicle -4.27387e-015 -2.10712e-014
rhumerus -25.6541 1.20213 -85.0696
rradius 24.9409
rwrist -7.63383
rhand -28.1012 14.6889
rfingers 7.12502
rthumb -1.48362 -15.2856
lclavicle -4.27387e-015 -2.10712e-014
lhumerus -26.6761 -3.98055 93.3222
lradius 25.5335
lwrist 5.41726
lhand -7.25319 34.9488
lfingers 7.12502
lthumb 18.6273 64.0769
rfemur -19.9244 -1.34239 25.3035
rtibia 29.9708
rfoot -11.0004 -9.1542
rtoes 2.92435
lfemur -14.4772 3.127 -16.1384
ltibia 28.4392
lfoot -17.5667 4.28183
ltoes -4.10181
102
root 0.448429 18.0536 -9.21496 8.2642 -1.01732 -6.64173
lowerback -3.76463 0.980663 -1.3061
upperback 0.697341 1.26025 4.15357
thorax 2.71065 0.57619 5.11274
lowerneck -14.7378 0.849133 0.833937
upperneck 41.2616 3.51245 -5.59543
head 17.9821 0.788224 -2.09173
rclavicle -1.78658e-014 -2.22639e-014
rhumerus -25.74 1.32458 -85.2066
rradius 25.1038
rwrist -7.76432
rhand -28.2735 14.7971
rfingers 7.12502
rthumb -1.65008 -15.1762
lclavicle -1.78658e-014 -2.22639e-014
lhumerus -26.8967 -4.62935 93.4481
lradius 25.9653
lwrist 5.91856
lhand -7.44392 35.3828
lfingers 7.12502
lthumb 18.4438 64.5284
rfemur -20.3216 -1.55983 25.2452
rtibia 30.7023
rfoot -11.05 -9.10156
rtoes 2.77952
lfemur -14.506 3.32463 -16.2174
ltibia 28.4325
lfoot -17.6637 3.98758
ltoes -4.12177
